<?xml version="1.0"?>
<svg xmlns="http://www.w3.org/2000/svg" viewBox="0 0 1280 720" width="1280" height="720" role="img" aria-label="1512dd horizontal lockup">
  <title>1512dd — Horizontal</title>
  <defs>
    
    <linearGradient id="beamY" x1="0" y1="0" x2="0" y2="1">
      <stop offset="0%" stop-color="#39ff7a" stop-opacity=".62"></stop>
      <stop offset="35%" stop-color="#39ff7a" stop-opacity=".44"></stop>
      <stop offset="80%" stop-color="#39ff7a" stop-opacity=".22"></stop>
      <stop offset="100%" stop-color="#39ff7a" stop-opacity=".08"></stop>
    </linearGradient>
    <linearGradient id="beamX" x1="0" y1="0" x2="1" y2="0">
      <stop offset="0%" stop-color="#39ff7a" stop-opacity="0"></stop>
      <stop offset="22%" stop-color="#39ff7a" stop-opacity=".5"></stop>
      <stop offset="50%" stop-color="#aaffcc" stop-opacity=".95"></stop>
      <stop offset="78%" stop-color="#39ff7a" stop-opacity=".5"></stop>
      <stop offset="100%" stop-color="#39ff7a" stop-opacity="0"></stop>
    </linearGradient>
    <radialGradient id="poolGrad" cx="50%" cy="50%" r="50%">
      <stop offset="0%" stop-color="#aaffcc" stop-opacity=".75"></stop>
      <stop offset="55%" stop-color="#39ff7a" stop-opacity=".35"></stop>
      <stop offset="100%" stop-color="#39ff7a" stop-opacity="0"></stop>
    </radialGradient>
    <radialGradient id="starHalo" cx="50%" cy="50%" r="50%">
      <stop offset="0%" stop-color="#ffffff" stop-opacity=".95"></stop>
      <stop offset="20%" stop-color="#aaffcc" stop-opacity=".8"></stop>
      <stop offset="60%" stop-color="#39ff7a" stop-opacity=".25"></stop>
      <stop offset="100%" stop-color="#39ff7a" stop-opacity="0"></stop>
    </radialGradient>
    <filter id="soft" x="-30%" y="-30%" width="160%" height="160%"><feGaussianBlur stdDeviation="1.4"></feGaussianBlur></filter>
    <filter id="poolBlur" x="-20%" y="-20%" width="140%" height="140%"><feGaussianBlur stdDeviation="3"></feGaussianBlur></filter>
    <filter id="haloBlur" x="-50%" y="-50%" width="200%" height="200%"><feGaussianBlur stdDeviation="6"></feGaussianBlur></filter>
    <symbol id="pcSolid" viewBox="0 0 200 200">
      <g fill="#39ff7a">
        <path d="M40,22 C40,14 46,10 56,10 L144,10 C154,10 160,14 160,22 L162,118 C162,126 156,130 146,130 L54,130 C44,130 38,126 38,118 Z"></path>
        <rect x="74" y="132" width="52" height="4" rx="1" fill="#000"></rect>
        <rect x="10" y="140" width="180" height="50" rx="5"></rect>
        <rect x="30" y="158" width="62" height="14" rx="1.5" fill="#000"></rect>
        <rect x="108" y="158" width="62" height="14" rx="1.5" fill="#000"></rect>
        <rect x="34" y="160" width="14" height="10"></rect>
        <rect x="112" y="160" width="14" height="10"></rect>
      </g>
      <rect x="52" y="24" width="96" height="84" rx="10" fill="#031a10"></rect>
      <g fill="#39ff7a" opacity=".95">
        <rect x="60" y="36" width="34" height="3"></rect>
        <rect x="60" y="44" width="58" height="3"></rect>
        <rect x="60" y="52" width="46" height="3"></rect>
        <rect x="60" y="60" width="62" height="3"></rect>
        <rect x="60" y="68" width="28" height="3"></rect>
        <rect x="60" y="80" width="6" height="6"></rect>
      </g>
    </symbol>
    <symbol id="sparkle" viewBox="-50 -50 100 100" overflow="visible">
      <path d="M 0,-50 C 5,-14 14,-5 50,0 C 14,5 5,14 0,50 C -5,14 -14,5 -50,0 C -14,-5 -5,-14 0,-50 Z" fill="#ffffff"></path>
      <circle cx="-6" cy="-6" r="3" fill="#ffffff" fill-opacity=".95"></circle>
    </symbol>
  </defs>
  <rect width="1280" height="720" fill="#000"></rect>
  <g transform="translate(80,40)">
    <ellipse cx="300" cy="555" rx="245" ry="42" fill="url(#poolGrad)" filter="url(#poolBlur)"></ellipse>
    <ellipse cx="300" cy="555" rx="160" ry="22" fill="#aaffcc" fill-opacity=".35" filter="url(#poolBlur)"></ellipse>
    <path d="M 252,128 A 48,11 0 0,0 348,128 L 540,548 A 245,42 0 0,1 60,548 L 252,128 Z" fill="url(#beamY)" filter="url(#soft)"></path>
    <path d="M 282,130 L 380,540 L 220,540 L 318,130 Z" fill="url(#beamX)" opacity=".25"></path>
    <circle cx="300" cy="92" r="80" fill="url(#starHalo)" filter="url(#haloBlur)"></circle>
    <use href="#sparkle" x="270" y="62" width="60" height="60"></use>
    <use href="#pcSolid" x="208" y="335" width="184" height="220"></use>
  </g>
  <g transform="translate(700,310)">
    <text class="wm" x="0" y="0">1512dd</text>
    <text class="sub" x="6" y="50">EMULATOR</text>
    <line x1="6" y1="78" x2="500" y2="78" stroke="#1ea758" stroke-width="1" stroke-dasharray="3 5"></line>
    <text class="tag" x="6" y="108">a 5.25&#34; twin-floppy desktop pc · reborn</text>
  </g>
</svg>